<?xml version="1.0" standalone="no"?>
<!DOCTYPE svg PUBLIC "-//W3C//DTD SVG 20010904//EN"
 "http://www.w3.org/TR/2001/REC-SVG-20010904/DTD/svg10.dtd">
<svg version="1.0" xmlns="http://www.w3.org/2000/svg"
 width="512.000000pt" height="512.000000pt" viewBox="0 0 512.000000 512.000000"
 preserveAspectRatio="xMidYMid meet">
<metadata>
Created by potrace 1.14, written by Peter Selinger 2001-2017
</metadata>
<g transform="translate(0.000000,512.000000) scale(0.100000,-0.100000)"
fill="#000000" stroke="none">
<path d="M1871 4909 c-108 -21 -268 -93 -325 -145 -40 -38 -84 -110 -103 -170
l-16 -51 -76 -6 c-93 -6 -145 -23 -280 -89 -237 -116 -339 -291 -286 -488 29
-106 27 -120 -20 -135 -61 -18 -96 -39 -142 -86 -82 -82 -101 -168 -64 -289
12 -40 24 -70 26 -68 2 2 -2 26 -10 53 -51 167 45 313 244 371 15 5 13 25 -14
124 -33 123 -4 243 84 342 107 120 355 237 504 238 42 0 49 3 59 28 40 99 73
155 113 190 58 51 160 104 255 133 177 55 385 11 523 -109 l52 -46 -50 53
c-109 114 -318 181 -474 150z"/>
<path d="M3836 4880 c-241 -30 -400 -101 -447 -197 -18 -37 -21 -56 -16 -106
3 -34 9 -72 12 -84 6 -18 0 -25 -44 -48 -83 -41 -164 -135 -118 -135 7 0 31
18 52 41 22 22 62 52 88 66 42 21 48 28 43 46 -15 49 -18 136 -7 170 17 50 97
119 175 151 86 34 237 64 367 72 177 11 327 -20 439 -92 l55 -35 -39 36 c-48
43 -120 79 -201 100 -72 19 -263 27 -359 15z"/>
<path d="M2694 4810 c-58 -12 -99 -31 -174 -79 -47 -31 -73 -41 -92 -38 -27 3
-27 3 -11 -15 25 -27 54 -22 124 23 77 51 114 67 181 79 98 19 283 -42 379
-126 l44 -38 -44 47 c-93 98 -293 170 -407 147z"/>
<path d="M1910 4749 c-75 -14 -182 -58 -240 -97 -68 -46 -111 -102 -134 -175
l-18 -57 -53 0 c-128 0 -335 -99 -428 -204 -92 -103 -115 -250 -63 -395 9 -24
16 -44 16 -45 0 0 -19 -1 -43 -2 -75 -2 -161 -63 -202 -143 -25 -49 -16 -149
18 -216 30 -60 101 -129 160 -156 55 -25 148 -25 228 1 35 10 65 18 67 15 4
-3 -15 -213 -24 -272 -5 -32 -7 -33 -52 -33 -26 0 -66 -9 -90 -20 -58 -26
-145 -111 -190 -184 -36 -59 -37 -64 -40 -174 -4 -118 13 -254 46 -367 15 -51
23 -63 53 -78 66 -32 292 -39 914 -27 314 5 962 9 1440 8 878 -3 1014 2 1052
34 8 6 25 33 38 59 80 156 98 436 38 554 -9 16 -38 54 -64 83 -83 91 -127 207
-150 392 -20 165 5 339 63 453 29 56 32 71 32 147 0 55 -8 114 -22 167 -28
104 -28 128 2 164 73 86 88 259 32 373 -32 65 -80 105 -159 133 -41 14 -80 18
-187 17 -268 -2 -415 -62 -451 -185 -17 -56 -1 -133 51 -232 22 -43 40 -80 40
-82 0 -2 -25 -17 -55 -34 -35 -20 -62 -44 -77 -70 l-22 -39 -47 42 c-102 91
-214 87 -322 -14 l-45 -41 31 88 c40 114 44 250 10 325 -44 96 -151 170 -287
198 -94 19 -181 -2 -278 -68 -71 -47 -72 -47 -136 17 -114 114 -295 170 -452
140z m75 -158 c43 -19 95 -73 95 -97 0 -9 17 3 40 27 35 37 43 41 72 35 37 -7
78 -42 78 -67 0 -10 11 -19 26 -23 40 -10 74 -50 74 -87 0 -36 -56 -99 -88
-99 -12 0 -28 -13 -40 -35 -23 -38 -61 -53 -95 -38 -18 9 -28 5 -60 -23 -42
-38 -96 -45 -146 -20 -33 17 -84 73 -106 116 -12 24 -22 30 -48 30 -97 0 -163
100 -127 195 17 45 57 46 122 1 l36 -24 6 30 c8 39 67 98 98 98 12 0 41 -9 63
-19z m751 -34 c-137 -87 -177 -176 -123 -272 45 -81 137 -102 243 -56 51 23
55 16 17 -30 -79 -94 -264 -92 -336 3 -67 88 -49 236 38 305 39 31 117 62 155
62 23 0 24 -1 6 -12z m1214 -7 c11 -11 20 -27 20 -35 0 -21 6 -19 49 15 43 35
98 48 130 31 34 -18 28 -75 -13 -139 -25 -37 -31 -52 -20 -52 8 0 26 -11 39
-25 35 -34 33 -78 -5 -117 -28 -27 -35 -30 -73 -24 -23 4 -53 14 -65 22 -13 9
-24 14 -25 12 -21 -41 -39 -63 -53 -63 -27 0 -81 78 -102 147 l-19 61 -12 -48
c-16 -64 -49 -127 -64 -123 -7 3 -20 19 -29 37 -9 19 -30 42 -47 52 -32 19
-51 47 -51 75 0 30 40 64 76 64 32 0 33 1 23 29 -13 36 3 71 30 71 10 0 30 -9
45 -21 22 -17 26 -18 26 -5 0 21 58 56 93 56 15 0 36 -9 47 -20z m-1155 -40
c16 -18 26 -20 71 -15 62 8 72 -5 44 -61 -19 -36 -19 -39 -2 -86 20 -59 11
-71 -53 -65 -33 3 -46 -2 -73 -25 -18 -15 -39 -28 -47 -28 -16 0 -29 36 -23
64 2 11 -11 24 -37 39 -58 33 -55 64 7 97 36 19 48 32 57 62 13 43 29 48 56
18z m-1295 -326 c26 -35 88 -75 137 -90 87 -26 127 -83 127 -185 0 -93 -46
-188 -112 -230 -25 -16 -56 -29 -69 -29 -16 0 -23 -6 -23 -20 0 -16 7 -20 33
-20 72 0 75 -46 3 -63 l-36 -9 0 -363 0 -362 42 -7 c106 -17 99 -86 -8 -86
l-34 0 0 -159 0 -158 49 -7 c27 -3 55 -14 64 -24 15 -16 15 -20 1 -40 -8 -12
-34 -27 -57 -33 -50 -15 -351 -13 -378 1 -50 27 -25 84 42 95 l39 7 0 152 0
152 -42 14 c-38 13 -43 19 -43 45 0 27 5 32 43 43 l42 14 0 92 c0 51 3 214 7
363 l6 270 -44 15 c-61 20 -63 44 -5 60 25 7 46 15 46 19 0 3 -18 9 -41 13
-55 9 -90 28 -127 70 -71 81 -61 249 20 322 12 12 57 41 98 64 92 51 114 71
141 128 l22 45 21 -40 c12 -21 28 -48 36 -59z m2334 62 c22 -53 80 -110 138
-135 103 -45 119 -55 141 -90 34 -56 31 -167 -6 -244 -32 -64 -78 -107 -134
-123 -51 -14 -58 -44 -11 -44 19 0 42 -6 52 -13 17 -12 17 -15 2 -30 -9 -9
-32 -19 -51 -23 l-35 -6 0 -363 0 -362 41 -7 c56 -9 79 -23 79 -47 0 -23 -35
-39 -86 -39 l-34 0 0 -159 0 -158 48 -7 c95 -12 106 -51 26 -91 -35 -17 -57
-19 -208 -17 -92 1 -176 7 -186 12 -50 27 -22 85 45 96 l45 6 0 154 0 153 -34
7 c-79 14 -86 76 -10 95 l44 11 0 363 0 362 -45 17 c-25 10 -45 21 -45 26 0
13 23 27 58 35 34 7 44 25 15 25 -39 0 -95 23 -128 51 -49 43 -68 101 -64 192
6 104 31 139 152 211 98 57 134 91 156 145 8 17 15 31 17 31 2 0 10 -15 18
-34z m-1097 -218 c97 -104 252 -182 410 -207 127 -20 213 -81 262 -185 55
-115 61 -224 20 -345 -28 -81 -45 -102 -74 -95 -34 8 -85 -11 -124 -47 l-34
-30 -36 34 c-94 90 -215 98 -289 19 -29 -30 -35 -33 -43 -20 -24 43 -143 88
-234 88 -72 0 -121 -17 -163 -55 l-37 -33 -38 33 c-87 76 -217 70 -268 -11
l-21 -35 -39 36 c-21 19 -43 35 -48 35 -12 0 -68 117 -82 173 -7 29 -10 84 -7
136 4 72 11 98 33 140 50 91 121 130 350 190 249 65 315 98 377 186 18 25 33
45 35 45 1 0 24 -23 50 -52z m503 -2 c0 -21 74 -83 109 -91 46 -10 71 -48 71
-107 0 -27 -7 -63 -16 -80 l-16 -30 -41 40 c-56 54 -106 77 -206 96 -46 8 -86
18 -89 21 -9 9 24 37 81 71 29 16 61 44 72 62 21 33 35 41 35 18z m-1165 -26
c8 -25 61 -66 97 -75 14 -4 36 -16 49 -28 l22 -21 -84 -26 c-109 -34 -184 -75
-222 -122 -17 -21 -34 -38 -39 -38 -13 0 -38 65 -38 100 0 58 25 97 84 130 30
17 68 47 83 65 33 40 40 42 48 15z m-966 -366 c12 -15 21 -41 21 -60 0 -24 5
-34 20 -39 11 -4 28 -17 36 -31 15 -22 15 -26 0 -49 -15 -23 -15 -28 -1 -47
22 -33 19 -65 -9 -83 -28 -19 -55 -10 -80 26 -14 20 -16 20 -31 5 -40 -39 -99
-13 -111 50 -4 21 -12 34 -21 34 -8 0 -31 8 -50 17 -44 20 -67 69 -57 119 9
50 41 63 100 42 24 -8 44 -12 44 -7 0 23 42 49 79 49 31 0 44 -6 60 -26z
m1168 -459 c35 -10 62 -27 86 -54 l36 -40 25 33 c48 63 133 87 238 67 72 -14
137 -49 166 -88 l20 -27 16 33 c24 46 71 71 134 71 63 0 102 -18 159 -73 l43
-41 32 31 c70 68 132 74 177 17 23 -29 29 -103 12 -162 l-10 -32 125 0 124 0
0 -39 c0 -34 -3 -39 -29 -44 -62 -13 -80 -69 -36 -112 13 -14 33 -25 45 -25
20 0 20 -4 18 -137 l-3 -137 -34 -7 c-18 -4 -43 -16 -54 -28 -18 -18 -19 -25
-10 -56 l11 -35 -385 0 -385 0 6 33 c30 169 13 291 -49 345 -61 54 -168 55
-228 2 -41 -36 -57 -86 -57 -176 0 -61 4 -90 25 -181 l5 -23 -405 0 c-223 0
-405 2 -405 5 0 3 9 14 20 25 11 11 20 26 20 34 0 22 -46 54 -90 61 l-40 7 0
134 0 134 28 5 c59 13 92 34 92 59 0 33 -23 54 -76 67 -32 8 -44 16 -44 30 0
18 9 19 130 19 l129 0 -24 49 c-62 123 -8 241 110 241 29 0 45 -9 84 -45 l48
-45 13 29 c14 35 46 66 80 80 35 14 49 13 107 -4z m1783 -287 c0 -26 50 -119
77 -144 15 -14 44 -33 64 -41 21 -8 41 -25 49 -41 16 -37 14 -170 -6 -267 -24
-118 -20 -115 -119 -115 -81 0 -117 12 -75 25 25 8 43 40 35 64 -6 20 -45 41
-75 41 -49 0 -50 4 -50 150 0 148 1 150 55 150 12 0 33 8 45 18 40 33 9 77
-65 92 -26 5 -30 11 -33 43 l-3 37 50 0 c34 0 51 -4 51 -12z m-2750 -37 c0
-13 -10 -20 -32 -25 -51 -10 -78 -33 -78 -66 0 -33 31 -60 67 -60 23 0 23 -1
23 -145 0 -140 -1 -145 -20 -145 -35 0 -79 -29 -86 -55 -4 -16 0 -35 10 -50
l17 -26 -83 3 -83 3 -19 70 c-11 45 -19 109 -20 176 -1 118 9 142 64 154 47
10 102 80 133 168 5 13 18 17 57 17 42 0 50 -3 50 -19z"/>
<path d="M1415 3516 c-30 -45 20 -91 64 -59 25 17 27 46 5 67 -23 23 -51 20
-69 -8z"/>
<path d="M1432 3408 c-25 -25 0 -64 32 -52 21 8 21 50 0 58 -20 8 -18 8 -32
-6z"/>
<path d="M3780 3525 c-7 -8 -10 -25 -6 -39 11 -45 71 -45 82 0 8 30 -11 54
-41 54 -12 0 -28 -7 -35 -15z"/>
<path d="M3795 3410 c-4 -7 -3 -16 3 -22 14 -14 45 -2 40 15 -6 16 -34 21 -43
7z"/>
<path d="M2542 3100 c-70 -43 -78 -136 -17 -197 29 -29 39 -33 85 -33 46 0 56
4 85 33 19 19 36 48 40 69 14 74 -48 148 -125 148 -19 0 -50 -9 -68 -20z"/>
<path d="M2194 3098 c-24 -11 -44 -48 -44 -78 0 -10 11 -31 24 -46 43 -51 125
-31 141 33 17 69 -55 124 -121 91z"/>
<path d="M2984 3096 c-35 -15 -44 -32 -44 -81 0 -24 7 -39 26 -54 80 -63 179
38 112 113 -30 32 -56 38 -94 22z"/>
<path d="M1906 3069 c-32 -25 -35 -70 -6 -99 29 -29 74 -26 100 7 25 32 20 69
-12 96 -27 22 -49 22 -82 -4z"/>
<path d="M3281 3041 c-25 -25 -27 -49 -5 -79 24 -35 84 -28 103 12 12 25 11
31 -6 55 -26 33 -65 39 -92 12z"/>
<path d="M1080 3076 c0 -8 -23 -21 -52 -31 -142 -46 -245 -131 -303 -250 -69
-140 -76 -223 -39 -430 16 -85 63 -250 69 -243 2 2 -3 26 -11 53 -22 71 -51
227 -59 316 -21 231 130 449 363 524 47 16 52 20 52 46 0 16 -4 29 -10 29 -5
0 -10 -6 -10 -14z"/>
<path d="M4565 2780 c21 -22 41 -40 44 -40 3 0 -13 18 -34 40 -21 22 -41 40
-44 40 -3 0 13 -18 34 -40z"/>
<path d="M1356 1761 c-20 -22 -60 -143 -70 -215 l-8 -49 -56 55 c-91 89 -190
144 -322 179 -25 7 -54 19 -65 26 -26 17 -74 16 -148 -3 -33 -8 -69 -13 -79
-11 -11 3 -16 1 -11 -6 4 -6 0 -8 -10 -4 -24 9 -111 -83 -146 -155 -82 -166
-52 -366 73 -490 26 -25 65 -53 87 -64 l41 -18 -4 -180 c-4 -150 -8 -190 -24
-231 -19 -49 -20 -50 -69 -55 -37 -4 -51 -10 -53 -22 -3 -16 27 -18 455 -20
252 -2 465 -6 473 -10 8 -4 21 -4 28 0 9 6 4 25 -23 78 -42 83 -82 220 -91
312 l-7 67 -19 -40 c-10 -22 -15 -29 -11 -15 31 121 17 111 -22 -15 -28 -92
-66 -177 -92 -207 -8 -9 -16 -25 -17 -35 -2 -10 -7 -18 -12 -18 -5 0 -29 -12
-54 -27 -53 -31 -96 -44 -167 -53 l-53 -7 0 210 0 209 49 7 c58 8 153 53 206
100 l40 33 35 -40 c29 -32 38 -37 47 -26 9 11 -5 32 -63 99 -41 47 -79 84 -84
82 -6 -1 -11 2 -11 8 -1 5 -2 16 -3 23 -1 6 -7 11 -13 10 -6 -1 -17 4 -23 12
-7 8 -21 15 -31 15 -15 0 -18 6 -14 33 l5 32 -14 -36 c-26 -66 -48 -104 -85
-143 -32 -36 -33 -37 -6 -17 31 23 85 96 85 114 0 6 3 8 6 4 10 -10 -42 -92
-76 -121 -18 -14 -37 -23 -46 -19 -14 5 -15 32 -10 222 3 119 8 227 12 241 6
25 6 25 -14 -3 -10 -15 -28 -34 -38 -41 -35 -24 -133 -55 -190 -61 -68 -6 -72
-9 -51 -33 38 -41 47 -88 47 -232 l0 -140 -37 15 c-137 56 -211 282 -140 427
28 58 62 90 132 125 92 47 257 57 367 23 129 -40 265 -156 301 -258 22 -60 37
-59 37 1 0 74 28 231 54 302 14 38 24 71 22 72 -1 2 -11 -6 -20 -16z"/>
<path d="M850 1605 c-24 -25 -42 -45 -39 -45 3 0 25 20 49 45 24 25 42 45 39
45 -3 0 -25 -20 -49 -45z"/>
<path d="M4585 1393 c-11 -3 -26 -13 -33 -22 -10 -12 -12 -12 -7 -1 4 8 -1 6
-9 -4 -9 -11 -16 -16 -16 -10 -1 5 -12 -4 -26 -21 l-26 -30 6 33 6 32 -158 0
c-110 0 -162 -4 -170 -12 -9 -9 -12 -9 -12 2 0 11 -3 11 -12 2 -17 -17 -4 -25
39 -26 37 -1 39 -3 58 -56 17 -48 20 -88 23 -315 3 -255 -1 -309 -33 -410 -4
-13 -1 -11 8 5 34 58 42 132 42 365 0 127 -3 255 -7 285 -6 46 -5 50 4 25 6
-16 13 -131 15 -255 6 -291 -17 -444 -69 -448 -7 0 -30 -2 -50 -3 -24 -1 -38
-7 -38 -16 0 -10 46 -13 236 -13 219 0 235 1 232 18 -2 9 -10 16 -18 14 -83
-19 -114 109 -108 458 3 196 5 219 25 262 40 87 107 123 146 80 18 -20 23 -47
8 -37 -5 3 -12 1 -16 -5 -4 -6 -12 -7 -18 -4 -7 4 -9 4 -5 -1 4 -4 1 -13 -8
-19 -8 -6 -21 -29 -29 -51 -9 -27 -14 -33 -15 -18 0 12 5 34 10 50 9 26 9 27
-5 9 -8 -11 -15 -40 -15 -64 0 -37 6 -50 34 -78 29 -29 41 -34 80 -34 91 0
136 47 136 140 0 64 -22 113 -66 147 -34 25 -98 38 -139 26z"/>
<path d="M3538 1371 c-102 -52 -149 -114 -163 -215 -5 -32 -10 -44 -16 -35
-13 21 -10 89 6 134 12 35 12 38 0 21 -37 -49 -32 -164 9 -204 21 -21 37 -27
89 -30 60 -4 66 -2 100 28 66 57 59 149 -14 197 -25 17 -38 32 -34 40 3 8 5
16 5 19 0 12 65 34 100 34 87 0 110 -39 110 -190 0 -69 4 -100 11 -100 9 0 10
33 6 118 -6 129 8 124 19 -7 9 -101 2 -129 -34 -138 -55 -13 -225 -94 -275
-129 -111 -80 -142 -123 -156 -222 l-9 -57 -1 60 c0 33 3 76 9 94 6 22 6 31 0
25 -22 -22 -33 -119 -20 -179 29 -139 184 -204 321 -135 47 24 121 100 115
117 -3 6 3 27 12 45 13 26 18 69 21 193 2 88 6 151 10 140 12 -36 -3 -330 -18
-348 -7 -9 -14 -36 -16 -60 -1 -24 -6 -53 -9 -65 l-7 -22 180 0 c154 0 181 2
181 15 0 10 -11 15 -35 15 -71 0 -85 60 -94 410 -6 254 -8 278 -28 315 -47 88
-121 127 -248 132 -74 3 -97 0 -127 -16z m192 -523 c-3 -115 -9 -181 -18 -196
-7 -12 -10 -28 -6 -34 4 -6 3 -8 -3 -5 -6 4 -13 0 -17 -8 -8 -21 -59 -19 -105
5 -107 54 -153 204 -88 286 18 23 203 122 232 123 6 1 8 -60 5 -171z m9 -312
c-9 -8 -10 -7 -5 7 3 10 7 26 7 35 1 9 4 6 6 -7 3 -13 -1 -28 -8 -35z"/>
<path d="M2694 1362 c-75 -36 -153 -149 -154 -224 0 -20 -5 -40 -10 -43 -6 -4
-8 -16 -5 -28 6 -21 6 -22 -7 -2 -8 12 -13 50 -13 93 1 41 -2 65 -6 55 -13
-32 -9 -113 7 -151 31 -76 97 -127 239 -187 105 -45 190 -98 219 -138 29 -39
27 -112 -3 -162 -17 -29 -18 -35 -5 -24 24 20 44 71 45 116 l1 38 10 -43 c8
-35 6 -50 -9 -79 -47 -95 -232 -113 -310 -31 l-28 30 25 17 c66 44 75 57 74
110 0 42 -6 57 -29 81 -19 20 -32 27 -39 20 -5 -5 -29 -10 -52 -10 -50 0 -94
-32 -124 -89 l-19 -36 0 30 c-1 17 6 44 14 60 l15 30 -21 -25 c-18 -21 -20
-35 -17 -87 3 -51 10 -69 34 -100 69 -87 244 -133 379 -100 128 32 200 99 230
214 17 63 12 128 -12 178 -35 70 -122 135 -181 135 -58 0 -217 65 -217 89 0 4
-15 20 -32 35 -61 52 -65 143 -7 197 36 34 148 40 199 10 37 -22 43 -18 20 13
-22 29 -155 34 -211 8z"/>
<path d="M1527 1364 c-16 -16 -5 -24 31 -24 35 0 41 -4 56 -37 29 -67 36 -141
36 -372 0 -211 -8 -293 -35 -376 -3 -11 3 -4 14 15 22 39 28 30 6 -10 -14 -27
-15 -27 -75 -29 -28 -1 -40 -5 -40 -16 0 -13 33 -15 235 -15 202 0 235 2 235
15 0 11 -11 15 -39 15 -36 0 -40 3 -55 39 -28 70 -36 161 -36 397 l0 230 25
35 c36 48 53 59 97 59 120 0 150 -194 88 -565 -37 -219 -36 -281 6 -368 40
-86 148 -177 176 -149 8 8 2 21 -22 48 -44 51 -60 93 -60 161 0 58 13 99 118
388 36 97 37 105 37 235 0 128 -2 138 -29 197 -15 34 -37 70 -47 79 -19 17
-19 16 -17 -7 3 -22 -2 -25 -52 -33 -54 -8 -57 -7 -90 22 -53 49 -115 45 -179
-12 -20 -17 -23 -18 -18 -3 9 24 0 21 -14 -4 -9 -17 -8 -20 3 -14 7 5 10 4 5
0 -6 -8 -47 -16 -47 -10 0 2 7 19 15 38 21 50 20 60 -5 47 -10 -6 -25 -28 -31
-50 -7 -22 -17 -40 -23 -39 -6 0 -32 4 -58 8 -26 4 -45 4 -42 0 2 -4 0 -10 -5
-13 -5 -4 -17 15 -27 40 -18 48 -41 64 -94 64 -16 0 -30 5 -32 11 -2 5 -7 7
-11 3z m140 -181 c-3 -10 -5 -2 -5 17 0 19 2 27 5 18 2 -10 2 -26 0 -35z m470
1 c22 -102 11 -278 -26 -419 -11 -38 -25 -103 -32 -144 -7 -41 -14 -70 -16
-64 -2 6 8 84 22 174 33 204 41 327 26 403 -6 32 -8 63 -5 68 9 14 27 4 31
-18z m-460 -141 c-2 -21 -4 -4 -4 37 0 41 2 58 4 38 2 -21 2 -55 0 -75z"/>
<path d="M2962 1348 c-7 -7 -12 -18 -12 -25 0 -7 -15 -30 -34 -50 -18 -21 -39
-56 -46 -77 -11 -33 -14 -36 -22 -22 -6 10 -8 35 -6 57 2 22 0 35 -5 30 -14
-14 -12 -77 2 -104 28 -52 133 -78 190 -48 28 16 61 69 61 100 0 40 -39 109
-74 131 -39 24 -39 23 -54 8z"/>
<path d="M3334 858 l-29 -33 33 29 c30 28 37 36 29 36 -2 0 -16 -15 -33 -32z"/>
<path d="M551 444 c-33 -42 -29 -108 9 -145 33 -33 31 -49 -13 -96 l-20 -23
54 0 c38 0 50 3 39 10 -8 5 -24 10 -35 10 -12 0 -16 3 -9 8 6 4 14 20 18 35 5
20 11 27 21 23 8 -3 25 -1 37 4 22 8 22 9 -5 9 -36 1 -84 26 -97 50 -27 52 0
131 45 131 38 0 44 -25 23 -93 -10 -33 -17 -61 -16 -62 2 -1 15 -5 30 -9 23
-5 25 -3 21 14 -5 17 -8 18 -21 8 -13 -11 -14 -8 -8 27 11 59 23 63 36 14 6
-24 16 -59 22 -77 5 -18 8 -49 6 -68 l-4 -34 49 0 c48 0 49 0 29 18 -14 11
-29 50 -46 117 -14 55 -23 101 -21 104 3 2 -11 15 -30 28 -46 31 -88 30 -114
-3z m127 -35 c-3 -8 -7 -3 -11 10 -4 17 -3 21 5 13 5 -5 8 -16 6 -23z m9 -41
c-3 -8 -6 -5 -6 6 -1 11 2 17 5 13 3 -3 4 -12 1 -19z m10 -40 c-3 -8 -6 -5 -6
6 -1 11 2 17 5 13 3 -3 4 -12 1 -19z m38 -117 c3 -6 0 -11 -7 -11 -8 0 -14 14
-15 38 -1 33 -1 34 7 10 4 -14 11 -31 15 -37z"/>
<path d="M810 460 c23 -14 28 -222 6 -255 l-16 -25 52 0 c38 0 49 3 38 10 -8
5 -22 10 -30 10 -13 0 -14 19 -10 127 l5 128 5 -125 6 -125 2 126 c2 124 1
127 -20 133 -13 3 -30 6 -38 6 -13 0 -13 -1 0 -10z"/>
<path d="M929 461 c8 -6 15 -38 18 -95 5 -78 4 -86 -12 -86 -15 0 -16 -2 -4
-17 15 -17 13 -50 -3 -70 -8 -10 0 -13 35 -13 45 0 45 0 34 25 -7 14 -15 25
-18 25 -11 0 -10 198 0 205 17 10 13 28 -4 21 -8 -3 -15 -1 -15 4 0 6 -10 10
-22 10 -17 0 -19 -3 -9 -9z m46 -251 c3 -5 1 -10 -4 -10 -6 0 -11 5 -11 10 0
6 2 10 4 10 3 0 8 -4 11 -10z"/>
<path d="M2345 408 c-9 -23 2 -39 21 -31 9 3 11 9 6 12 -5 3 -11 13 -14 21 -5
13 -7 12 -13 -2z"/>
<path d="M2438 389 c16 -17 17 -180 0 -197 -9 -9 -3 -12 28 -12 34 1 37 2 22
14 -14 10 -18 32 -20 107 -3 85 -5 94 -23 97 -16 3 -18 1 -7 -9z"/>
<path d="M3180 374 c16 -41 13 -87 -5 -80 -8 3 -15 1 -15 -4 0 -6 4 -10 10
-10 15 0 22 -43 11 -73 -10 -26 -9 -27 25 -27 21 0 33 4 29 10 -3 6 -14 10
-23 10 -10 0 -13 3 -7 8 11 8 14 183 3 175 -5 -2 -8 1 -8 6 0 6 -7 11 -15 11
-11 0 -12 -5 -5 -26z"/>
<path d="M3273 389 c11 -7 17 -22 17 -47 0 -28 3 -33 10 -22 15 24 12 67 -6
74 -25 10 -41 6 -21 -5z"/>
<path d="M3519 382 c14 -26 14 -157 1 -183 -10 -17 -7 -19 25 -19 22 0 34 4
30 10 -3 6 -12 10 -18 10 -8 0 -12 29 -12 97 0 87 -2 98 -18 101 -16 3 -17 1
-8 -16z"/>
<path d="M4338 389 c16 -17 16 -111 0 -127 -10 -10 -10 -15 2 -22 11 -7 12
-13 2 -34 -11 -25 -10 -26 18 -26 17 0 30 5 30 10 0 6 -6 10 -12 10 -10 0 -13
26 -13 97 0 90 -2 98 -20 101 -16 3 -18 1 -7 -9z"/>
<path d="M4526 384 c-8 -20 1 -34 22 -34 12 0 13 3 5 11 -6 6 -9 18 -6 25 3 8
1 14 -5 14 -5 0 -13 -7 -16 -16z"/>
<path d="M2943 383 c-15 -6 -17 -37 -3 -62 7 -14 5 -23 -10 -36 -28 -26 -26
-71 5 -91 13 -8 32 -14 42 -11 15 3 13 6 -9 15 -16 6 -28 14 -28 17 0 4 4 3
10 0 6 -3 7 1 4 9 -3 9 -9 14 -13 11 -4 -2 -5 9 -3 26 6 42 18 36 47 -26 24
-50 29 -55 58 -55 l32 1 -25 14 c-14 7 -23 17 -22 21 2 4 0 10 -5 13 -16 11
-74 141 -68 151 7 11 6 11 -12 3z"/>
<path d="M2993 355 c1 -19 4 -35 9 -35 11 0 21 47 13 59 -13 22 -23 10 -22
-24z"/>
<path d="M4495 379 c-4 -6 -7 -48 -6 -94 1 -46 -3 -86 -8 -89 -31 -19 -72 47
-50 82 14 23 6 52 -16 52 -12 0 -13 -3 -3 -19 9 -15 9 -24 -3 -42 -12 -17 -13
-29 -5 -55 l11 -34 65 0 c53 1 62 3 50 13 -10 8 -15 32 -16 72 -2 59 -7 125
-11 125 -1 0 -5 -5 -8 -11z"/>
<path d="M1028 368 c18 -18 15 -53 -7 -79 -18 -22 -18 -24 0 -52 9 -16 15 -36
12 -43 -4 -11 5 -14 37 -14 25 0 39 4 35 10 -3 5 -14 10 -25 10 -19 0 -34 25
-25 41 3 5 1 18 -5 30 -9 15 -9 24 -1 32 17 17 13 64 -5 71 -24 9 -29 7 -16
-6z"/>
<path d="M1140 361 c5 -11 10 -47 10 -81 0 -34 -5 -70 -10 -81 -10 -17 -7 -19
30 -19 22 0 40 5 40 10 0 6 -10 10 -22 10 -22 0 -23 3 -20 81 3 60 0 84 -10
90 -22 14 -29 10 -18 -10z"/>
<path d="M1215 370 c-3 -5 1 -10 9 -10 9 0 19 -11 22 -26 7 -28 1 -109 -11
-136 -6 -16 -1 -18 41 -18 35 0 45 3 34 10 -8 5 -24 10 -35 11 -13 1 -15 3 -5
5 12 4 15 20 13 75 -1 40 -5 75 -10 79 -15 14 -51 21 -58 10z"/>
<path d="M1310 370 c-13 -8 -12 -10 3 -10 29 0 38 -43 26 -120 -10 -60 -10
-73 5 -95 22 -34 38 -32 21 2 -9 19 -10 42 -5 73 4 25 8 38 9 30 4 -24 19 20
20 56 1 50 -44 86 -79 64z m67 -87 c-3 -10 -5 -2 -5 17 0 19 2 27 5 18 2 -10
2 -26 0 -35z"/>
<path d="M1456 367 c-24 -18 -18 -62 9 -62 13 0 21 8 23 23 2 12 -2 22 -8 22
-7 0 -10 -7 -6 -15 3 -8 1 -15 -4 -15 -13 0 -13 16 0 41 13 22 10 24 -14 6z"/>
<path d="M1500 373 c38 -15 40 -57 3 -78 l-28 -15 28 6 29 7 -4 -54 -3 -54 40
-3 c32 -2 36 0 23 8 -10 6 -18 21 -19 33 -1 21 -2 20 -9 -3 -6 -17 -8 1 -7 55
0 44 -2 86 -7 93 -4 7 -19 12 -34 11 -16 0 -21 -3 -12 -6z"/>
<path d="M1703 373 c29 -8 22 -59 -10 -77 -16 -8 -24 -15 -20 -16 5 0 17 5 28
10 18 10 19 7 19 -50 l0 -60 36 0 c38 0 39 19 1 21 -12 0 -16 3 -9 6 8 3 12
26 12 67 0 70 -19 107 -53 105 -17 -1 -18 -2 -4 -6z"/>
<path d="M1826 353 c7 -16 14 -48 14 -73 0 -25 -7 -57 -14 -72 l-15 -28 52 0
c46 0 49 1 31 14 -16 12 -19 28 -21 93 -1 43 -6 78 -11 78 -6 0 -14 3 -18 8
-4 4 -13 7 -20 7 -10 0 -10 -6 2 -27z"/>
<path d="M1907 373 c10 -3 10 -9 0 -23 -15 -25 3 -46 30 -35 17 8 17 8 1 12
-10 3 -18 8 -18 13 0 5 8 6 17 3 13 -5 15 -2 10 11 -4 10 -7 20 -7 22 0 2 -10
4 -22 3 -13 0 -18 -3 -11 -6z"/>
<path d="M2532 363 c4 -23 38 -30 38 -8 0 9 -4 13 -10 10 -5 -3 -10 -1 -10 4
0 6 -5 11 -11 11 -6 0 -9 -8 -7 -17z"/>
<path d="M3385 371 c-3 -5 -1 -12 5 -16 5 -3 10 1 10 9 0 18 -6 21 -15 7z"/>
<path d="M3425 371 c-3 -5 -1 -12 5 -16 5 -3 10 1 10 9 0 18 -6 21 -15 7z"/>
<path d="M3640 366 c0 -8 -10 -22 -22 -30 -12 -9 -17 -16 -11 -16 8 0 13 -24
15 -67 3 -64 4 -68 28 -71 24 -3 24 -3 6 11 -17 12 -18 23 -14 100 3 48 4 87
2 87 -2 0 -4 -6 -4 -14z"/>
<path d="M3735 371 c-3 -5 -1 -12 5 -16 5 -3 10 1 10 9 0 18 -6 21 -15 7z"/>
<path d="M3775 371 c-3 -5 -1 -12 5 -16 5 -3 10 1 10 9 0 18 -6 21 -15 7z"/>
<path d="M1647 363 c-4 -3 -7 -17 -7 -30 0 -27 26 -41 43 -24 8 8 6 11 -7 11
-14 0 -17 6 -14 25 5 24 -2 32 -15 18z"/>
<path d="M1183 285 c0 -44 2 -61 4 -37 2 23 2 59 0 80 -2 20 -4 1 -4 -43z"/>
<path d="M2335 270 l0 -90 33 0 c20 0 31 4 27 10 -3 6 -12 10 -19 10 -9 0 -11
16 -8 59 4 54 -8 101 -26 101 -4 0 -7 -41 -7 -90z"/>
<path d="M1670 340 c0 -5 5 -10 11 -10 5 0 7 5 4 10 -3 6 -8 10 -11 10 -2 0
-4 -4 -4 -10z"/>
<path d="M3248 317 c-14 -20 -13 -26 4 -57 10 -19 17 -45 15 -57 -4 -21 0 -23
35 -23 24 0 37 4 33 10 -3 6 -15 10 -26 10 -11 0 -18 4 -15 9 4 5 -3 30 -14
55 -10 25 -17 53 -14 61 9 22 -2 18 -18 -8z"/>
<path d="M2529 312 c14 -26 14 -87 1 -113 -10 -17 -7 -19 25 -19 22 0 34 4 30
10 -3 6 -12 10 -18 10 -8 0 -12 21 -12 62 0 53 -3 63 -18 66 -16 3 -17 1 -8
-16z"/>
<path d="M2623 291 c8 -28 8 -50 0 -75 -11 -36 -11 -36 18 -36 16 0 29 5 29
10 0 6 -6 10 -12 10 -9 0 -13 19 -13 62 0 50 -3 63 -16 66 -14 3 -15 -2 -6
-37z"/>
<path d="M2684 311 c15 -17 18 -31 13 -76 l-6 -55 30 0 c18 0 28 4 24 10 -3 6
-12 10 -18 10 -8 0 -12 21 -12 62 0 60 -1 63 -25 67 -25 3 -25 3 -6 -18z"/>
<path d="M2746 321 c-3 -5 1 -12 10 -15 14 -5 15 -16 10 -69 -7 -63 -2 -97 15
-97 5 0 7 11 3 25 -3 13 -1 47 6 74 9 37 9 55 0 70 -11 22 -35 28 -44 12z"/>
<path d="M3355 319 c5 -7 11 -40 14 -73 6 -56 8 -61 31 -64 23 -2 23 -1 8 11
-12 9 -18 32 -20 73 -2 48 -6 59 -22 62 -13 3 -16 0 -11 -9z"/>
<path d="M3430 310 c6 -12 10 -45 8 -73 -3 -47 -1 -52 20 -55 12 -2 22 1 22 7
0 6 -4 11 -10 11 -5 0 -10 28 -12 62 -2 52 -6 63 -21 66 -16 3 -17 1 -7 -18z"/>
<path d="M3705 319 c5 -7 11 -40 14 -73 6 -56 8 -61 31 -64 23 -2 23 -1 8 11
-12 9 -18 32 -20 73 -2 48 -6 59 -22 62 -13 3 -16 0 -11 -9z"/>
<path d="M3780 258 c5 -66 7 -73 28 -76 12 -2 22 1 22 7 0 6 -4 11 -10 11 -5
0 -10 28 -12 62 -2 46 -7 64 -18 66 -13 2 -14 -9 -10 -70z"/>
<path d="M3865 255 l0 -75 30 0 c25 1 28 3 15 13 -10 8 -15 31 -15 72 0 45 -4
60 -15 63 -12 2 -15 -11 -15 -73z"/>
<path d="M3926 314 c-8 -20 1 -34 21 -34 13 0 13 3 3 15 -9 11 -9 15 -1 15 7
0 9 5 6 10 -9 15 -22 12 -29 -6z"/>
<path d="M4061 295 c12 -20 27 -54 34 -78 11 -34 14 -38 21 -23 8 20 -22 116
-40 128 -28 19 -34 6 -15 -27z"/>
<path d="M4128 299 c3 -22 7 -27 13 -18 13 21 11 49 -4 49 -9 0 -12 -10 -9
-31z"/>
<path d="M4201 316 c-14 -16 -9 -46 8 -46 15 0 19 12 12 39 -6 21 -8 22 -20 7z"/>
<path d="M4256 257 l0 -72 30 -3 c25 -2 27 -1 13 10 -9 8 -16 33 -18 68 -1 30
-5 58 -7 62 -13 21 -19 1 -18 -65z"/>
<path d="M4579 321 c10 -6 12 -26 9 -75 l-4 -66 31 0 c25 1 28 3 15 13 -11 9
-14 27 -12 66 3 55 -5 71 -38 71 -12 0 -13 -2 -1 -9z"/>
<path d="M3010 294 c0 -3 7 -12 15 -21 8 -8 13 -19 10 -24 -4 -5 -1 -9 4 -9
17 0 13 47 -5 54 -19 7 -24 8 -24 0z"/>
<path d="M1435 256 c-24 -37 -5 -76 37 -76 26 0 30 3 20 13 -7 6 -18 12 -24
12 -6 0 -13 7 -15 15 -4 13 -3 13 6 0 13 -18 14 -1 1 20 -5 9 -5 19 2 27 7 9
7 13 -1 13 -6 0 -18 -11 -26 -24z"/>
<path d="M1637 262 c-33 -37 -10 -86 37 -80 l28 3 -23 20 c-12 11 -19 14 -15
8 4 -7 3 -13 -3 -13 -5 0 -8 18 -6 40 2 22 2 40 1 40 -2 0 -10 -8 -19 -18z"/>
<path d="M4196 244 c-28 -28 -12 -64 29 -64 19 1 19 1 1 15 -13 10 -17 22 -14
40 6 29 5 30 -16 9z"/>
<path d="M3682 225 c0 -16 2 -22 5 -12 2 9 2 23 0 30 -3 6 -5 -1 -5 -18z"/>
</g>
</svg>
